<svg width="20" height="20" viewBox="0 0 20 20" fill="none" xmlns="http://www.w3.org/2000/svg">
<path fill-rule="evenodd" clip-rule="evenodd" d="M9 5H10V8.00098H9V7H8V8L9 8.00098V9H8V10.001H7V9H6.00098V10.001H7V11.001H6.00098V12H7V11.001L8 11V12H9V17.001H8V18H7V17.001H5.00098V13H6L6.00098 12H5.00098V9H6.00098L6 8.00098H5.00098V5H6V4.00098H5.00098V3H7V2H9V5ZM6.00098 6H7V7H8V6.00098L7 6V5H6L6.00098 6Z" fill="#FF8F2C"/>
<path d="M10 18H9V17.001L10 17V18Z" fill="#FF8F2C"/>
<path d="M12 6.00098H11.001V7H12V10.001H11.001V11H12V18H10L10.001 10.001H11.001L11 9H10.001V8H11L11.001 7H10.001V6H11V5H10L10.001 2H12V6.00098Z" fill="#FF8F2C"/>
<path d="M13.001 3H14V4.00098H13.001V5H14V8.00098H13.001V9H14V12H13.001V13H14V17.001H13.001V18H12L12.001 12H13.001L13 11.001H12.001V8H13V7H12L12.001 6H13L13.001 5H12.001L12 2H13.001V3Z" fill="#FF8F2C"/>
<path d="M18 13.001H17V15.001H16V14H15.001V15L16 15.001V16H15.001V17.001H14L14.001 14H15.001L15 13.001H14.001L14 9H18V13.001Z" fill="#FF8F2C"/>
<path d="M5 13.001H4.00098V14H5V16H4L4.00098 14H3.00098V9H5.00098L5 13.001Z" fill="#FF8F2C"/>
<path d="M3 13.001H2V10.001H3V13.001Z" fill="#FF8F2C"/>
<path d="M10 12H9V11.001L8 11V10.001H9V9H10.001L10 12Z" fill="#FF8F2C"/>
<path d="M3.00098 9H2V7H3L3.00098 9Z" fill="#FF8F2C"/>
<path d="M5.00098 8.00098H3.00098V5H4V4H5L5.00098 8.00098Z" fill="#FF8F2C"/>
<path d="M16 5H17V7H18V8.00098H14L14.001 4H16V5Z" fill="#FF8F2C"/>
<path d="M6.00098 19H10V20H6V19.001H5.00098V18H6.00098V19Z" fill="#FF8F2C" fill-opacity="0.4"/>
<path d="M12 20H10V19H12V20Z" fill="#FF8F2C" fill-opacity="0.4"/>
<path d="M14 20H12V19H14V20Z" fill="#FF8F2C" fill-opacity="0.4"/>
<path d="M4.00098 18H5.00098V19.001H4L4.00098 18H3.00098V17H4.00098V18Z" fill="#FF8F2C" fill-opacity="0.4"/>
<path d="M16 19.001H14.001V18H16V19.001Z" fill="#FF8F2C" fill-opacity="0.4"/>
<path d="M17 18H16V17H17V18Z" fill="#FF8F2C" fill-opacity="0.4"/>
<path d="M2.00098 16H3V17.001H2L2.00098 16H1.00098V14H2.00098V16Z" fill="#FF8F2C" fill-opacity="0.4"/>
<path d="M18 17.001L17 17V16H18V17.001Z" fill="#FF8F2C" fill-opacity="0.4"/>
<path d="M19 16H18V14H19V16Z" fill="#FF8F2C" fill-opacity="0.4"/>
<path d="M1.00098 14H0V6H1L1.00098 14Z" fill="#FF8F2C" fill-opacity="0.4"/>
<path d="M20 14H19V6H20V14Z" fill="#FF8F2C" fill-opacity="0.4"/>
<path d="M3 4.00098H2.00098V6.00098H1.00098V4H2V3H3V4.00098Z" fill="#FF8F2C" fill-opacity="0.4"/>
<path d="M19 6L18 6.00098V4H19V6Z" fill="#FF8F2C" fill-opacity="0.4"/>
<path d="M18 4L17 4.00098V3H18V4Z" fill="#FF8F2C" fill-opacity="0.4"/>
<path d="M5 2.00098H4.00098V3H3L3.00098 2H4V1H5V2.00098Z" fill="#FF8F2C" fill-opacity="0.4"/>
<path d="M17 3H16V2H17V3Z" fill="#FF8F2C" fill-opacity="0.4"/>
<path d="M5 1H6V0H10V1H6L6.00098 2.00098H5V1Z" fill="#FF8F2C" fill-opacity="0.4"/>
<path d="M16 2L14.001 2.00098V1H16V2Z" fill="#FF8F2C" fill-opacity="0.4"/>
<path d="M12 1H10V0H12V1Z" fill="#FF8F2C" fill-opacity="0.4"/>
<path d="M14.001 1H12V0H14L14.001 1Z" fill="#FF8F2C" fill-opacity="0.4"/>
</svg>
