<svg width="20" height="20" viewBox="0 0 20 20" fill="none" xmlns="http://www.w3.org/2000/svg">
<path d="M8.99998 1.99991H7.99951V3.00038H8.99998V1.99991Z" fill="#FF8F2C"/>
<path d="M8.00047 1.99991H7V3.00038H8.00047V1.99991Z" fill="#FF8F2C"/>
<path d="M11.001 1.99991H10.0005V3.00038H11.001V1.99991Z" fill="#FF8F2C"/>
<path d="M12.0005 1.99991H11V3.00038H12.0005V1.99991Z" fill="#FF8F2C"/>
<path d="M13.001 1.99991H12.0005V3.00038H13.001V1.99991Z" fill="#FF8F2C"/>
<path d="M8.99998 3.00037H7.99951V4.00083H8.99998V3.00037Z" fill="#FF8F2C"/>
<path d="M8.00047 3.00037H7V4.00083H8.00047V3.00037Z" fill="#FF8F2C"/>
<path d="M11.001 3.00037H10.0005V4.00083H11.001V3.00037Z" fill="#FF8F2C"/>
<path d="M12.0005 3.00037H11V4.00083H12.0005V3.00037Z" fill="#FF8F2C"/>
<path d="M13.001 3.00037H12.0005V4.00083H13.001V3.00037Z" fill="#FF8F2C"/>
<path d="M8.99998 3.99979H7.99951V5.00025H8.99998V3.99979Z" fill="#FF8F2C"/>
<path d="M8.00047 3.99979H7V5.00025H8.00047V3.99979Z" fill="#FF8F2C"/>
<path d="M11.001 3.99979H10.0005V5.00025H11.001V3.99979Z" fill="#FF8F2C"/>
<path d="M12.0005 3.99979H11V5.00025H12.0005V3.99979Z" fill="#FF8F2C"/>
<path d="M13.001 3.99979H12.0005V5.00025H13.001V3.99979Z" fill="#FF8F2C"/>
<path d="M8.99998 5.00024H7.99951V6.00071H8.99998V5.00024Z" fill="#FF8F2C"/>
<path d="M8.00047 5.00024H7V6.00071H8.00047V5.00024Z" fill="#FF8F2C"/>
<path d="M10.0005 5.00024H9V6.00071H10.0005V5.00024Z" fill="#FF8F2C"/>
<path d="M12.0005 5.00024H11V6.00071H12.0005V5.00024Z" fill="#FF8F2C"/>
<path d="M8.99998 5.99969H7.99951V7.00016H8.99998V5.99969Z" fill="#FF8F2C"/>
<path d="M10.0005 5.99969H9V7.00016H10.0005V5.99969Z" fill="#FF8F2C"/>
<path d="M11.001 5.99969H10.0005V7.00016H11.001V5.99969Z" fill="#FF8F2C"/>
<path d="M13.001 5.99969H12.0005V7.00016H13.001V5.99969Z" fill="#FF8F2C"/>
<path d="M8.00047 7.00015H7V8.00062H8.00047V7.00015Z" fill="#FF8F2C"/>
<path d="M10.0005 7.00015H9V8.00062H10.0005V7.00015Z" fill="#FF8F2C"/>
<path d="M12.0005 7.00015H11V8.00062H12.0005V7.00015Z" fill="#FF8F2C"/>
<path d="M8.99998 7.9996H7.99951V9.00007H8.99998V7.9996Z" fill="#FF8F2C"/>
<path d="M8.00047 7.9996H7V9.00007H8.00047V7.9996Z" fill="#FF8F2C"/>
<path d="M11.001 7.9996H10.0005V9.00007H11.001V7.9996Z" fill="#FF8F2C"/>
<path d="M12.0005 7.9996H11V9.00007H12.0005V7.9996Z" fill="#FF8F2C"/>
<path d="M13.001 7.9996H12.0005V9.00007H13.001V7.9996Z" fill="#FF8F2C"/>
<path d="M8.00047 9.00006H7V10.0005H8.00047V9.00006Z" fill="#FF8F2C"/>
<path d="M10.0005 9.00006H9V10.0005H10.0005V9.00006Z" fill="#FF8F2C"/>
<path d="M12.0005 9.00006H11V10.0005H12.0005V9.00006Z" fill="#FF8F2C"/>
<path d="M13.001 9.00006H12.0005V10.0005H13.001V9.00006Z" fill="#FF8F2C"/>
<path d="M8.99998 10.0005H7.99951V11.001H8.99998V10.0005Z" fill="#FF8F2C"/>
<path d="M10.0005 10.0005H9V11.001H10.0005V10.0005Z" fill="#FF8F2C"/>
<path d="M11.001 10.0005H10.0005V11.001H11.001V10.0005Z" fill="#FF8F2C"/>
<path d="M13.001 10.0005H12.0005V11.001H13.001V10.0005Z" fill="#FF8F2C"/>
<path d="M8.00047 10.9999H7V12.0004H8.00047V10.9999Z" fill="#FF8F2C"/>
<path d="M10.0005 10.9999H9V12.0004H10.0005V10.9999Z" fill="#FF8F2C"/>
<path d="M11.001 10.9999H10.0005V12.0004H11.001V10.9999Z" fill="#FF8F2C"/>
<path d="M12.0005 10.9999H11V12.0004H12.0005V10.9999Z" fill="#FF8F2C"/>
<path d="M8.99998 12.0004H7.99951V13.0009H8.99998V12.0004Z" fill="#FF8F2C"/>
<path d="M8.00047 12.0004H7V13.0009H8.00047V12.0004Z" fill="#FF8F2C"/>
<path d="M11.001 12.0004H10.0005V13.0009H11.001V12.0004Z" fill="#FF8F2C"/>
<path d="M12.0005 12.0004H11V13.0009H12.0005V12.0004Z" fill="#FF8F2C"/>
<path d="M13.001 12.0004H12.0005V13.0009H13.001V12.0004Z" fill="#FF8F2C"/>
<path d="M8.99998 12.9998H7.99951V14.0003H8.99998V12.9998Z" fill="#FF8F2C"/>
<path d="M8.00047 12.9998H7V14.0003H8.00047V12.9998Z" fill="#FF8F2C"/>
<path d="M11.001 12.9998H10.0005V14.0003H11.001V12.9998Z" fill="#FF8F2C"/>
<path d="M12.0005 12.9998H11V14.0003H12.0005V12.9998Z" fill="#FF8F2C"/>
<path d="M13.001 12.9998H12.0005V14.0003H13.001V12.9998Z" fill="#FF8F2C"/>
<path d="M8.99998 14.0003H7.99951V15.0008H8.99998V14.0003Z" fill="#FF8F2C"/>
<path d="M8.00047 14.0003H7V15.0008H8.00047V14.0003Z" fill="#FF8F2C"/>
<path d="M11.001 14.0003H10.0005V15.0008H11.001V14.0003Z" fill="#FF8F2C"/>
<path d="M12.0005 14.0003H11V15.0008H12.0005V14.0003Z" fill="#FF8F2C"/>
<path d="M13.001 14.0003H12.0005V15.0008H13.001V14.0003Z" fill="#FF8F2C"/>
<path d="M8.99998 14.9997H7.99951V16.0002H8.99998V14.9997Z" fill="#FF8F2C"/>
<path d="M8.00047 14.9997H7V16.0002H8.00047V14.9997Z" fill="#FF8F2C"/>
<path d="M11.001 14.9997H10.0005V16.0002H11.001V14.9997Z" fill="#FF8F2C"/>
<path d="M12.0005 14.9997H11V16.0002H12.0005V14.9997Z" fill="#FF8F2C"/>
<path d="M13.001 14.9997H12.0005V16.0002H13.001V14.9997Z" fill="#FF8F2C"/>
<path d="M8.99998 16.0002H7.99951V17.0007H8.99998V16.0002Z" fill="#FF8F2C"/>
<path d="M8.00047 16.0002H7V17.0007H8.00047V16.0002Z" fill="#FF8F2C"/>
<path d="M11.001 16.0002H10.0005V17.0007H11.001V16.0002Z" fill="#FF8F2C"/>
<path d="M12.0005 16.0002H11V17.0007H12.0005V16.0002Z" fill="#FF8F2C"/>
<path d="M13.001 16.0002H12.0005V17.0007H13.001V16.0002Z" fill="#FF8F2C"/>
<path d="M8.00047 16.9996H7V18.0001H8.00047V16.9996Z" fill="#FF8F2C"/>
<path d="M10.0005 16.9996H9V18.0001H10.0005V16.9996Z" fill="#FF8F2C"/>
<path d="M11.001 16.9996H10.0005V18.0001H11.001V16.9996Z" fill="#FF8F2C"/>
<path d="M12.0005 16.9996H11V18.0001H12.0005V16.9996Z" fill="#FF8F2C"/>
<path d="M13.001 16.9996H12.0005V18.0001H13.001V16.9996Z" fill="#FF8F2C"/>
<path d="M14.0005 3.00037H13V4.00083H14.0005V3.00037Z" fill="#FF8F2C"/>
<path d="M15.001 3.99979H14.0005V5.00025H15.001V3.99979Z" fill="#FF8F2C"/>
<path d="M16 3.99979H14.9995V5.00025H16V3.99979Z" fill="#FF8F2C"/>
<path d="M15.001 5.00024H14.0005V6.00071H15.001V5.00024Z" fill="#FF8F2C"/>
<path d="M14.0005 5.00024H13V6.00071H14.0005V5.00024Z" fill="#FF8F2C"/>
<path d="M16 5.00024H14.9995V6.00071H16V5.00024Z" fill="#FF8F2C"/>
<path d="M17.0005 5.00024H16V6.00071H17.0005V5.00024Z" fill="#FF8F2C"/>
<path d="M15.001 5.99969H14.0005V7.00016H15.001V5.99969Z" fill="#FF8F2C"/>
<path d="M14.0005 5.99969H13V7.00016H14.0005V5.99969Z" fill="#FF8F2C"/>
<path d="M16 5.99969H14.9995V7.00016H16V5.99969Z" fill="#FF8F2C"/>
<path d="M17.0005 5.99969H16V7.00016H17.0005V5.99969Z" fill="#FF8F2C"/>
<path d="M15.001 7.00015H14.0005V8.00062H15.001V7.00015Z" fill="#FF8F2C"/>
<path d="M14.0005 7.00015H13V8.00062H14.0005V7.00015Z" fill="#FF8F2C"/>
<path d="M16 7.00015H14.9995V8.00062H16V7.00015Z" fill="#FF8F2C"/>
<path d="M17.0005 7.00015H16V8.00062H17.0005V7.00015Z" fill="#FF8F2C"/>
<path d="M18 7.00015H16.9995V8.00062H18V7.00015Z" fill="#FF8F2C"/>
<path d="M15.001 9.00006H14.0005V10.0005H15.001V9.00006Z" fill="#FF8F2C"/>
<path d="M14.0005 9.00006H13V10.0005H14.0005V9.00006Z" fill="#FF8F2C"/>
<path d="M16 9.00006H14.9995V10.0005H16V9.00006Z" fill="#FF8F2C"/>
<path d="M17.0005 9.00006H16V10.0005H17.0005V9.00006Z" fill="#FF8F2C"/>
<path d="M18 9.00006H16.9995V10.0005H18V9.00006Z" fill="#FF8F2C"/>
<path d="M15.001 10.0005H14.0005V11.001H15.001V10.0005Z" fill="#FF8F2C"/>
<path d="M14.0005 10.0005H13V11.001H14.0005V10.0005Z" fill="#FF8F2C"/>
<path d="M16 10.0005H14.9995V11.001H16V10.0005Z" fill="#FF8F2C"/>
<path d="M17.0005 10.0005H16V11.001H17.0005V10.0005Z" fill="#FF8F2C"/>
<path d="M18 10.0005H16.9995V11.001H18V10.0005Z" fill="#FF8F2C"/>
<path d="M15.001 10.9999H14.0005V12.0004H15.001V10.9999Z" fill="#FF8F2C"/>
<path d="M14.0005 10.9999H13V12.0004H14.0005V10.9999Z" fill="#FF8F2C"/>
<path d="M16 10.9999H14.9995V12.0004H16V10.9999Z" fill="#FF8F2C"/>
<path d="M17.0005 10.9999H16V12.0004H17.0005V10.9999Z" fill="#FF8F2C"/>
<path d="M18 10.9999H16.9995V12.0004H18V10.9999Z" fill="#FF8F2C"/>
<path d="M15.001 12.0004H14.0005V13.0009H15.001V12.0004Z" fill="#FF8F2C"/>
<path d="M16 12.0004H14.9995V13.0009H16V12.0004Z" fill="#FF8F2C"/>
<path d="M17.0005 12.0004H16V13.0009H17.0005V12.0004Z" fill="#FF8F2C"/>
<path d="M18 12.0004H16.9995V13.0009H18V12.0004Z" fill="#FF8F2C"/>
<path d="M14.0005 12.9998H13V14.0003H14.0005V12.9998Z" fill="#FF8F2C"/>
<path d="M16 12.9998H14.9995V14.0003H16V12.9998Z" fill="#FF8F2C"/>
<path d="M17.0005 12.9998H16V14.0003H17.0005V12.9998Z" fill="#FF8F2C"/>
<path d="M15.001 14.0003H14.0005V15.0008H15.001V14.0003Z" fill="#FF8F2C"/>
<path d="M14.0005 14.0003H13V15.0008H14.0005V14.0003Z" fill="#FF8F2C"/>
<path d="M17.0005 14.0003H16V15.0008H17.0005V14.0003Z" fill="#FF8F2C"/>
<path d="M15.001 14.9997H14.0005V16.0002H15.001V14.9997Z" fill="#FF8F2C"/>
<path d="M14.0005 14.9997H13V16.0002H14.0005V14.9997Z" fill="#FF8F2C"/>
<path d="M16 14.9997H14.9995V16.0002H16V14.9997Z" fill="#FF8F2C"/>
<path d="M15.001 16.0002H14.0005V17.0007H15.001V16.0002Z" fill="#FF8F2C"/>
<path d="M14.0005 16.0002H13V17.0007H14.0005V16.0002Z" fill="#FF8F2C"/>
<path d="M6.00096 3.00037H5.00049V4.00083H6.00096V3.00037Z" fill="#FF8F2C"/>
<path d="M6.99998 3.00037H5.99951V4.00083H6.99998V3.00037Z" fill="#FF8F2C"/>
<path d="M5.00047 3.99979H4V5.00025H5.00047V3.99979Z" fill="#FF8F2C"/>
<path d="M6.99998 3.99979H5.99951V5.00025H6.99998V3.99979Z" fill="#FF8F2C"/>
<path d="M4.00096 5.00024H3.00049V6.00071H4.00096V5.00024Z" fill="#FF8F2C"/>
<path d="M5.00047 5.00024H4V6.00071H5.00047V5.00024Z" fill="#FF8F2C"/>
<path d="M6.00096 5.00024H5.00049V6.00071H6.00096V5.00024Z" fill="#FF8F2C"/>
<path d="M4.00096 5.99969H3.00049V7.00016H4.00096V5.99969Z" fill="#FF8F2C"/>
<path d="M5.00047 5.99969H4V7.00016H5.00047V5.99969Z" fill="#FF8F2C"/>
<path d="M6.00096 5.99969H5.00049V7.00016H6.00096V5.99969Z" fill="#FF8F2C"/>
<path d="M6.99998 5.99969H5.99951V7.00016H6.99998V5.99969Z" fill="#FF8F2C"/>
<path d="M4.00096 7.00015H3.00049V8.00062H4.00096V7.00015Z" fill="#FF8F2C"/>
<path d="M3.00047 7.00015H2V8.00062H3.00047V7.00015Z" fill="#FF8F2C"/>
<path d="M5.00047 7.00015H4V8.00062H5.00047V7.00015Z" fill="#FF8F2C"/>
<path d="M6.00096 7.00015H5.00049V8.00062H6.00096V7.00015Z" fill="#FF8F2C"/>
<path d="M6.99998 7.00015H5.99951V8.00062H6.99998V7.00015Z" fill="#FF8F2C"/>
<path d="M3.00047 7.9996H2V9.00007H3.00047V7.9996Z" fill="#FF8F2C"/>
<path d="M6.99998 7.9996H5.99951V9.00007H6.99998V7.9996Z" fill="#FF8F2C"/>
<path d="M4.00096 9.00006H3.00049V10.0005H4.00096V9.00006Z" fill="#FF8F2C"/>
<path d="M5.00047 9.00006H4V10.0005H5.00047V9.00006Z" fill="#FF8F2C"/>
<path d="M6.00096 9.00006H5.00049V10.0005H6.00096V9.00006Z" fill="#FF8F2C"/>
<path d="M4.00096 10.0005H3.00049V11.001H4.00096V10.0005Z" fill="#FF8F2C"/>
<path d="M3.00047 10.0005H2V11.001H3.00047V10.0005Z" fill="#FF8F2C"/>
<path d="M5.00047 10.0005H4V11.001H5.00047V10.0005Z" fill="#FF8F2C"/>
<path d="M6.00096 10.0005H5.00049V11.001H6.00096V10.0005Z" fill="#FF8F2C"/>
<path d="M6.99998 10.0005H5.99951V11.001H6.99998V10.0005Z" fill="#FF8F2C"/>
<path d="M4.00096 10.9999H3.00049V12.0004H4.00096V10.9999Z" fill="#FF8F2C"/>
<path d="M3.00047 10.9999H2V12.0004H3.00047V10.9999Z" fill="#FF8F2C"/>
<path d="M5.00047 10.9999H4V12.0004H5.00047V10.9999Z" fill="#FF8F2C"/>
<path d="M6.00096 10.9999H5.00049V12.0004H6.00096V10.9999Z" fill="#FF8F2C"/>
<path d="M4.00096 12.0004H3.00049V13.0009H4.00096V12.0004Z" fill="#FF8F2C"/>
<path d="M3.00047 12.0004H2V13.0009H3.00047V12.0004Z" fill="#FF8F2C"/>
<path d="M5.00047 12.0004H4V13.0009H5.00047V12.0004Z" fill="#FF8F2C"/>
<path d="M6.99998 12.0004H5.99951V13.0009H6.99998V12.0004Z" fill="#FF8F2C"/>
<path d="M4.00096 12.9998H3.00049V14.0003H4.00096V12.9998Z" fill="#FF8F2C"/>
<path d="M6.00096 12.9998H5.00049V14.0003H6.00096V12.9998Z" fill="#FF8F2C"/>
<path d="M6.99998 12.9998H5.99951V14.0003H6.99998V12.9998Z" fill="#FF8F2C"/>
<path d="M5.00047 14.0003H4V15.0008H5.00047V14.0003Z" fill="#FF8F2C"/>
<path d="M6.00096 14.0003H5.00049V15.0008H6.00096V14.0003Z" fill="#FF8F2C"/>
<path d="M6.99998 14.0003H5.99951V15.0008H6.99998V14.0003Z" fill="#FF8F2C"/>
<path d="M5.00047 14.9997H4V16.0002H5.00047V14.9997Z" fill="#FF8F2C"/>
<path d="M6.00096 14.9997H5.00049V16.0002H6.00096V14.9997Z" fill="#FF8F2C"/>
<path d="M6.99998 14.9997H5.99951V16.0002H6.99998V14.9997Z" fill="#FF8F2C"/>
<path d="M6.00096 16.0002H5.00049V17.0007H6.00096V16.0002Z" fill="#FF8F2C"/>
<path d="M6.99998 16.0002H5.99951V17.0007H6.99998V16.0002Z" fill="#FF8F2C"/>
<path d="M8.99998 0H7.99951V1.00047H8.99998V0Z" fill="#FF8F2C" fill-opacity="0.4"/>
<path d="M8.00047 0H7V1.00047H8.00047V0Z" fill="#FF8F2C" fill-opacity="0.4"/>
<path d="M6.99998 0H5.99951V1.00047H6.99998V0Z" fill="#FF8F2C" fill-opacity="0.4"/>
<path d="M11.001 0H10.0005V1.00047H11.001V0Z" fill="#FF8F2C" fill-opacity="0.4"/>
<path d="M12.0005 0H11V1.00047H12.0005V0Z" fill="#FF8F2C" fill-opacity="0.4"/>
<path d="M13.001 0H12.0005V1.00047H13.001V0Z" fill="#FF8F2C" fill-opacity="0.4"/>
<path d="M14.0005 0H13V1.00047H14.0005V0Z" fill="#FF8F2C" fill-opacity="0.4"/>
<path d="M10.0005 0H9V1.00047H10.0005V0Z" fill="#FF8F2C" fill-opacity="0.4"/>
<path d="M6.99998 18.9995H5.99951V20H6.99998V18.9995Z" fill="#FF8F2C" fill-opacity="0.4"/>
<path d="M14.0005 18.9995H13V20H14.0005V18.9995Z" fill="#FF8F2C" fill-opacity="0.4"/>
<path d="M8.99998 18.9995H7.99951V20H8.99998V18.9995Z" fill="#FF8F2C" fill-opacity="0.4"/>
<path d="M8.00047 18.9995H7V20H8.00047V18.9995Z" fill="#FF8F2C" fill-opacity="0.4"/>
<path d="M11.001 18.9995H10.0005V20H11.001V18.9995Z" fill="#FF8F2C" fill-opacity="0.4"/>
<path d="M12.0005 18.9995H11V20H12.0005V18.9995Z" fill="#FF8F2C" fill-opacity="0.4"/>
<path d="M13.001 18.9995H12.0005V20H13.001V18.9995Z" fill="#FF8F2C" fill-opacity="0.4"/>
<path d="M10.0005 18.9995H9V20H10.0005V18.9995Z" fill="#FF8F2C" fill-opacity="0.4"/>
<path d="M15.001 1.00046H14.0005V2.00093H15.001V1.00046Z" fill="#FF8F2C" fill-opacity="0.4"/>
<path d="M16 1.00046H14.9995V2.00093H16V1.00046Z" fill="#FF8F2C" fill-opacity="0.4"/>
<path d="M17.0005 1.99991H16V3.00038H17.0005V1.99991Z" fill="#FF8F2C" fill-opacity="0.4"/>
<path d="M18 16.0002H16.9995V17.0007H18V16.0002Z" fill="#FF8F2C" fill-opacity="0.4"/>
<path d="M17.0005 16.9996H16V18.0001H17.0005V16.9996Z" fill="#FF8F2C" fill-opacity="0.4"/>
<path d="M15.001 18.0001H14.0005V19.0006H15.001V18.0001Z" fill="#FF8F2C" fill-opacity="0.4"/>
<path d="M16 18.0001H14.9995V19.0006H16V18.0001Z" fill="#FF8F2C" fill-opacity="0.4"/>
<path d="M1.00047 7.00015H0V8.00062H1.00047V7.00015Z" fill="#FF8F2C" fill-opacity="0.4"/>
<path d="M1.00047 7.9996H0V9.00007H1.00047V7.9996Z" fill="#FF8F2C" fill-opacity="0.4"/>
<path d="M1.00047 9.00006H0V10.0005H1.00047V9.00006Z" fill="#FF8F2C" fill-opacity="0.4"/>
<path d="M1.00047 10.0005H0V11.001H1.00047V10.0005Z" fill="#FF8F2C" fill-opacity="0.4"/>
<path d="M1.00047 10.9999H0V12.0004H1.00047V10.9999Z" fill="#FF8F2C" fill-opacity="0.4"/>
<path d="M1.00047 12.0004H0V13.0009H1.00047V12.0004Z" fill="#FF8F2C" fill-opacity="0.4"/>
<path d="M1.00047 12.9998H0V14.0003H1.00047V12.9998Z" fill="#FF8F2C" fill-opacity="0.4"/>
<path d="M20 7.00015H18.9995V8.00062H20V7.00015Z" fill="#FF8F2C" fill-opacity="0.4"/>
<path d="M20 5.99969H18.9995V7.00016H20V5.99969Z" fill="#FF8F2C" fill-opacity="0.4"/>
<path d="M20 7.9996H18.9995V9.00007H20V7.9996Z" fill="#FF8F2C" fill-opacity="0.4"/>
<path d="M20 9.00006H18.9995V10.0005H20V9.00006Z" fill="#FF8F2C" fill-opacity="0.4"/>
<path d="M20 10.0005H18.9995V11.001H20V10.0005Z" fill="#FF8F2C" fill-opacity="0.4"/>
<path d="M20 10.9999H18.9995V12.0004H20V10.9999Z" fill="#FF8F2C" fill-opacity="0.4"/>
<path d="M20 12.0004H18.9995V13.0009H20V12.0004Z" fill="#FF8F2C" fill-opacity="0.4"/>
<path d="M20 12.9998H18.9995V14.0003H20V12.9998Z" fill="#FF8F2C" fill-opacity="0.4"/>
<path d="M4.00096 16.9996H3.00049V18.0001H4.00096V16.9996Z" fill="#FF8F2C" fill-opacity="0.4"/>
<path d="M1.00047 5.99969H0V7.00016H1.00047V5.99969Z" fill="#FF8F2C" fill-opacity="0.4"/>
<path d="M2.00096 5.00024H1.00049V6.00071H2.00096V5.00024Z" fill="#FF8F2C" fill-opacity="0.4"/>
<path d="M2.00096 3.99979H1.00049V5.00025H2.00096V3.99979Z" fill="#FF8F2C" fill-opacity="0.4"/>
<path d="M3.00047 16.0002H2V17.0007H3.00047V16.0002Z" fill="#FF8F2C" fill-opacity="0.4"/>
<path d="M2.00096 14.0003H1.00049V15.0008H2.00096V14.0003Z" fill="#FF8F2C" fill-opacity="0.4"/>
<path d="M2.00096 14.9997H1.00049V16.0002H2.00096V14.9997Z" fill="#FF8F2C" fill-opacity="0.4"/>
<path d="M19.0005 5.00024H18V6.00071H19.0005V5.00024Z" fill="#FF8F2C" fill-opacity="0.4"/>
<path d="M19.0005 3.99979H18V5.00025H19.0005V3.99979Z" fill="#FF8F2C" fill-opacity="0.4"/>
<path d="M18 3.00037H16.9995V4.00083H18V3.00037Z" fill="#FF8F2C" fill-opacity="0.4"/>
<path d="M19.0005 14.0003H18V15.0008H19.0005V14.0003Z" fill="#FF8F2C" fill-opacity="0.4"/>
<path d="M19.0005 14.9997H18V16.0002H19.0005V14.9997Z" fill="#FF8F2C" fill-opacity="0.4"/>
<path d="M6.00096 18.0001H5.00049V19.0006H6.00096V18.0001Z" fill="#FF8F2C" fill-opacity="0.4"/>
<path d="M5.00047 18.0001H4V19.0006H5.00047V18.0001Z" fill="#FF8F2C" fill-opacity="0.4"/>
<path d="M3.00047 3.00037H2V4.00083H3.00047V3.00037Z" fill="#FF8F2C" fill-opacity="0.4"/>
<path d="M4.00096 1.99991H3.00049V3.00038H4.00096V1.99991Z" fill="#FF8F2C" fill-opacity="0.4"/>
<path d="M5.00047 1.00046H4V2.00093H5.00047V1.00046Z" fill="#FF8F2C" fill-opacity="0.4"/>
<path d="M6.00096 1.00046H5.00049V2.00093H6.00096V1.00046Z" fill="#FF8F2C" fill-opacity="0.4"/>
</svg>
